#!OML:ASF X:\für Bonn\!DataBase\2005_08_10_Bjorn_Final\c3d\bjorn.ASF
:FULLY-SPECIFIED
:DEGREES
282
root 0.29131 4.06757 10.929 -2043.57 -8.81361 178.465
lowerback 48.393 6.95292 13.561
upperback 24.1732 2.88245 2.95194
thorax 8.01873 -2.57804 -4.56222
lowerneck 2.49109 -0.535135 -2.10791
upperneck 20.5691 -0.723459 -12.543
head 5.73537 -2.10553 -3.75054
rclavicle 6.26172e-015 -1.33186e-014
rhumerus -45.0937 -36.9922 -58.8051
rradius 24.8118
rwrist -29.7691
rhand -8.43319 -21.901
rfingers 7.12502
rthumb 17.492 -51.134
lclavicle 6.26172e-015 -1.33186e-014
lhumerus -39.1173 -6.62381 94.1852
lradius 28.2305
lwrist 24.0067
lhand -32.6302 20.0258
lfingers 7.12502
lthumb -5.85718 769.925
rfemur -428.171 -27.0319 367.95
rtibia 99.2491
rfoot 18.9419 12.7437
rtoes -3.2257
lfemur -66.1755 49.2385 4.6415
ltibia 145.748
lfoot -11.3042 -24.9891
ltoes -7.99668
283
root 0.288941 4.00712 10.9087 -2043.94 -8.65294 178.377
lowerback 48.7255 7.07198 13.5918
upperback 24.216 2.97096 3.00251
thorax 8.03259 -2.59325 -4.5423
lowerneck 2.59757 -0.512154 -2.17323
upperneck 20.5461 -0.725925 -12.3125
head 5.71291 -2.08884 -3.66228
rclavicle -4.27387e-015 -5.38706e-014
rhumerus -44.9678 -35.18 -59.8855
rradius 25.7071
rwrist -31.5449
rhand -8.42596 -22.3616
rfingers 7.12502
rthumb 17.4989 -51.594
lclavicle -4.27387e-015 -5.38706e-014
lhumerus -39.859 -7.96797 94.6848
lradius 29.4077
lwrist 25.3015
lhand -32.7123 20.6132
lfingers 7.12502
lthumb -5.93649 770.51
rfemur -428.052 -26.877 367.933
rtibia 99.2841
rfoot 18.7998 12.5506
rtoes -3.28696
lfemur -65.7389 50.707 5.65284
ltibia 146.041
lfoot -11.4695 -25.5129
ltoes -7.89465
284
root 0.287248 3.94542 10.8872 -2044.31 -8.52934 178.27
lowerback 49.0548 7.19678 13.6193
upperback 24.266 3.06514 3.03467
thorax 8.05716 -2.60233 -4.54311
lowerneck 2.67903 -0.483224 -2.19971
upperneck 20.5274 -0.716417 -12.0636
head 5.6963 -2.06147 -3.57468
rclavicle -5.06901e-015 -2.74323e-014
rhumerus -44.9861 -33.4379 -60.9178
rradius 26.646
rwrist -33.2458
rhand -8.45456 -22.746
rfingers 7.12502
rthumb 17.4714 -51.9809
lclavicle -5.06901e-015 -2.74323e-014
lhumerus -40.621 -9.34775 95.1686
lradius 30.5704
lwrist 26.5538
lhand -32.8363 21.199
lfingers 7.12502
lthumb -6.0562 771.092
rfemur -427.953 -26.7256 367.869
rtibia 99.3528
rfoot 18.6541 12.3944
rtoes -3.81259
lfemur -65.329 52.0656 6.6139
ltibia 146.34
lfoot -11.6274 -25.9915
ltoes -7.86834
285
root 0.286685 3.8831 10.8647 -2044.71 -8.43139 178.198
lowerback 49.401 7.29748 13.6692
upperback 24.3148 3.13887 3.0626
thorax 8.08073 -2.6201 -4.55246
lowerneck 2.76075 -0.453553 -2.1536
upperneck 20.5036 -0.699735 -11.8707
head 5.67666 -2.02896 -3.51715
rclavicle -4.23411e-014 9.93923e-015
rhumerus -45.1288 -31.8857 -61.8395
rradius 27.6141
rwrist -34.759
rhand -8.45971 -23.1193
rfingers 7.12502
rthumb 17.4665 -52.3546
lclavicle -4.23411e-014 9.93923e-015
lhumerus -41.4046 -10.74 95.6439
lradius 31.7543
lwrist 27.7815
lhand -32.9394 21.805
lfingers 7.12502
lthumb -6.15573 771.696
rfemur -427.827 -26.6197 367.778
rtibia 99.4485
rfoot 18.5663 12.2166
rtoes -4.23049
lfemur -64.8948 53.2944 7.59424
ltibia 146.631
lfoot -11.7163 -26.4716
ltoes -7.66765
286
root 0.286629 3.82122 10.8403 -2045.13 -8.3449 178.131
lowerback 49.7609 7.39377 13.7377
upperback 24.3666 3.21334 3.08017
thorax 8.11085 -2.6353 -4.58152
lowerneck 2.84197 -0.415898 -2.10383
upperneck 20.4562 -0.673254 -11.6414
head 5.65045 -1.98594 -3.44734
rclavicle 2.47487e-014 4.77083e-015
rhumerus -45.3198 -30.4843 -62.6875
rradius 28.5559
rwrist -36.1804
rhand -8.49245 -23.4883
rfingers 7.12502
rthumb 17.435 -52.7264
lclavicle 2.47487e-014 4.77083e-015
lhumerus -42.2019 -12.1391 96.0994
lradius 32.9247
lwrist 28.9755
lhand -33.0564 22.4187
lfingers 7.12502
lthumb -6.26869 772.306
rfemur -427.675 -26.5288 367.652
rtibia 99.563
rfoot 18.5023 12.0499
rtoes -4.69562
lfemur -64.3496 54.5954 8.6767
ltibia 146.932
lfoot -11.9853 -26.8979
ltoes -7.78435
